<?xml version="1.0" standalone="no"?>
<!DOCTYPE svg PUBLIC "-//W3C//DTD SVG 20010904//EN"
 "http://www.w3.org/TR/2001/REC-SVG-20010904/DTD/svg10.dtd">
<svg version="1.0" xmlns="http://www.w3.org/2000/svg"
 width="260.000000pt" height="260.000000pt" viewBox="0 0 260.000000 260.000000"
 preserveAspectRatio="xMidYMid meet">
<metadata>
Created by potrace 1.11, written by Peter Selinger 2001-2013
</metadata>
<g transform="translate(0.000000,260.000000) scale(0.100000,-0.100000)"
fill="#000000" stroke="none">
<path d="M163 2563 c-66 -37 -126 -147 -127 -236 l-1 -61 43 -9 c32 -6 46 -15
57 -37 11 -20 27 -32 54 -40 76 -20 405 -160 428 -182 16 -15 23 -33 23 -60 0
-36 -2 -38 -30 -38 -23 0 -31 -5 -36 -25 -3 -14 -4 -34 -1 -44 4 -16 -3 -20
-44 -25 -63 -9 -73 -27 -66 -120 16 -200 155 -519 260 -596 35 -26 47 -41 47
-61 0 -65 11 -86 54 -104 77 -32 87 -35 116 -35 29 0 30 -1 30 -50 0 -52 23
-90 55 -90 8 0 15 -7 15 -15 0 -9 -9 -15 -23 -15 -17 0 -27 9 -38 32 -19 43
-58 57 -93 34 -17 -10 -26 -26 -26 -42 0 -14 -9 -37 -20 -51 -16 -20 -20 -41
-20 -94 0 -65 1 -69 25 -75 30 -7 33 -24 4 -24 -41 0 -59 -18 -59 -60 0 -28 6
-43 20 -53 17 -12 18 -16 6 -20 -8 -3 -22 -20 -31 -38 -21 -40 -9 -71 34 -94
29 -14 35 -28 44 -105 3 -19 83 -60 119 -60 25 0 28 3 28 35 l0 35 68 0 68 0
10 -52 9 -53 50 0 50 0 3 54 3 53 102 -7 c56 -4 104 -8 106 -10 2 -2 6 -19 10
-37 6 -29 11 -33 42 -36 19 -2 48 2 65 9 16 6 42 13 58 15 32 4 106 44 123 66
5 7 18 38 29 68 10 30 24 62 31 71 24 29 16 75 -18 103 -17 14 -37 26 -45 26
-27 0 -14 20 26 40 36 18 40 24 40 58 0 28 -7 45 -25 62 -22 21 -25 31 -25
100 l0 76 38 -1 c20 0 49 3 65 8 20 6 27 4 27 -7 0 -19 39 -46 67 -46 32 0 53
37 53 95 0 42 5 56 25 75 18 17 25 34 25 60 0 72 -97 123 -148 77 -16 -15 -21
-15 -38 -2 -10 8 -29 15 -40 15 -18 0 -22 8 -28 46 -10 75 -9 79 49 119 31 21
59 43 63 50 4 7 24 32 46 55 l38 42 84 -37 c64 -28 90 -36 111 -30 61 16 89
10 129 -28 22 -20 48 -37 60 -37 41 0 115 111 117 176 1 45 -18 64 -64 64 -55
0 -103 32 -109 72 -5 30 -13 37 -110 85 -58 28 -111 52 -119 52 -10 1 -12 10
-7 32 3 17 6 46 6 65 0 24 5 34 21 39 11 4 24 17 29 30 10 27 77 65 113 65 34
0 70 31 62 53 -9 22 -74 23 -115 2 -23 -12 -39 -13 -81 -5 -29 6 -53 11 -53
13 -6 19 -27 43 -40 45 -30 6 -64 -7 -71 -28 -5 -15 -15 -20 -43 -20 -20 0
-52 -8 -71 -18 l-34 -17 -53 52 c-59 58 -161 114 -244 133 -30 7 -65 17 -77
23 -16 7 -32 5 -62 -6 -30 -12 -41 -13 -45 -4 -3 8 -9 7 -19 -5 -8 -10 -20
-18 -27 -18 -8 0 -28 -5 -45 -11 -28 -10 -39 -7 -113 30 -61 31 -82 46 -82 61
0 15 7 20 25 20 15 0 31 10 42 26 27 42 4 71 -84 103 -72 26 -102 51 -103 84
0 18 -28 23 -58 9 -9 -5 -30 -15 -47 -23 -35 -17 -46 -56 -18 -65 75 -24 80
-28 64 -53 -7 -11 -17 -8 -53 13 -25 14 -55 26 -69 26 -26 0 -368 179 -412
216 -16 13 -37 24 -47 24 -10 0 -37 9 -61 20 -54 24 -57 24 -96 3z m92 -34 c4
-5 0 -18 -9 -28 -9 -10 -16 -25 -16 -34 0 -8 -11 -24 -24 -35 -14 -10 -33 -35
-42 -56 -18 -38 -22 -40 -48 -30 -22 9 -20 32 10 92 38 77 108 126 129 91z
m110 -64 c22 -13 105 -59 185 -102 110 -59 145 -82 142 -95 -3 -14 1 -15 26
-6 24 10 33 8 60 -12 l31 -23 -39 -45 c-22 -25 -40 -48 -40 -52 0 -4 -9 -10
-20 -13 -11 -3 -20 -1 -20 3 0 5 -9 12 -21 15 -18 6 -20 12 -14 41 7 40 -10
46 -27 9 -11 -24 -48 -36 -48 -15 0 15 -48 43 -75 43 -14 0 -28 4 -31 8 -3 5
-10 7 -15 4 -5 -4 -12 1 -15 9 -3 9 -21 18 -40 22 -19 3 -34 10 -34 15 0 5 -8
9 -18 9 -9 0 -29 11 -42 23 -14 13 -32 24 -40 25 -38 3 -55 10 -58 26 -5 23
53 110 81 124 30 14 27 15 72 -13z m694 -180 c45 -21 51 -27 41 -40 -8 -10
-21 -13 -33 -9 -12 4 -23 1 -28 -7 -6 -10 -9 -8 -9 9 0 24 -10 28 -28 10 -9
-9 -12 -7 -12 9 0 12 -4 25 -10 28 -16 10 -12 25 8 25 9 0 41 -11 71 -25z
m-179 -109 c0 -26 -6 -48 -15 -56 -31 -26 -13 -65 29 -65 11 0 21 -6 23 -12 7
-19 -22 -16 -62 7 -20 11 -42 20 -50 20 -7 0 -21 7 -29 16 -19 19 -11 37 41
95 47 52 63 51 63 -5z m27 -98 c-3 -7 -5 -2 -5 12 0 14 2 19 5 13 2 -7 2 -19
0 -25z m229 -5 c84 -29 95 -57 17 -46 -24 3 -54 1 -66 -5 -36 -17 -96 -20
-102 -4 -10 26 -5 42 13 42 10 0 27 7 38 15 25 19 40 19 100 -2z m407 -10 c-7
-2 -21 -2 -30 0 -10 3 -4 5 12 5 17 0 24 -2 18 -5z m-572 -160 c9 -10 23 -13
46 -10 27 5 33 2 33 -11 0 -12 -9 -18 -27 -20 -14 -1 -34 -9 -44 -18 -19 -17
-33 -5 -23 20 3 9 1 16 -5 16 -7 0 -11 29 -10 88 l2 87 8 -68 c4 -37 13 -75
20 -84z m367 121 c18 -8 36 -12 42 -9 6 4 18 1 26 -6 14 -11 11 -15 -21 -26
-31 -11 -41 -10 -66 2 -17 9 -29 24 -29 35 0 24 7 25 48 4z m410 -78 c35 -38
35 -38 -23 9 -80 64 -86 71 -47 49 18 -10 49 -36 70 -58z m-413 -1 c39 -19 92
-53 118 -77 43 -38 48 -47 45 -78 l-3 -35 -27 42 c-26 40 -166 143 -194 143
-22 0 -94 37 -87 44 13 13 76 -4 148 -39z m140 14 c-4 -5 -12 -3 -21 5 -20 21
-17 28 6 16 11 -6 18 -15 15 -21z m-12 -33 c3 -8 3 -17 0 -20 -7 -7 -33 13
-33 25 0 15 27 10 33 -5z m-695 -2 c12 -4 22 -13 22 -21 0 -12 -8 -14 -39 -9
-30 4 -42 2 -48 -9 -9 -15 -53 -10 -53 7 0 5 5 6 10 3 16 -10 50 5 50 21 0 15
20 18 58 8z m759 -16 c-3 -8 -6 -5 -6 6 -1 11 2 17 5 13 3 -3 4 -12 1 -19z
m60 -10 c-3 -7 -5 -2 -5 12 0 14 2 19 5 13 2 -7 2 -19 0 -25z m-443 -19 c30
-35 35 -60 8 -36 -26 23 -33 21 -27 -8 3 -14 7 -36 10 -50 4 -19 2 -23 -10
-19 -8 4 -15 11 -15 18 0 6 -6 23 -14 37 -15 30 -10 89 9 89 7 0 25 -14 39
-31z m883 -11 c-3 -8 -6 -5 -6 6 -1 11 2 17 5 13 3 -3 4 -12 1 -19z m-503 -4
c6 -15 4 -15 -11 -3 -10 7 -20 15 -22 16 -2 2 3 3 11 3 9 0 19 -7 22 -16z
m191 -39 c23 -10 35 -22 35 -35 0 -10 5 -22 11 -26 7 -4 7 -10 1 -16 -6 -6 -8
-17 -5 -26 5 -12 1 -14 -23 -7 -45 11 -57 13 -81 14 -13 1 -23 6 -23 12 0 7
18 9 50 6 63 -7 76 9 14 19 -26 4 -58 17 -75 31 -30 26 -38 58 -16 66 11 4 25
-1 112 -38z m-671 0 c3 -8 12 -12 21 -9 13 5 15 -1 12 -40 -4 -39 -2 -46 14
-46 25 0 33 -17 12 -28 -46 -23 -83 -22 -123 4 -40 27 -62 76 -42 96 7 7 12 0
17 -21 4 -18 13 -31 21 -31 11 0 13 6 9 20 -13 41 44 94 59 55z m994 -16 c11
0 13 -2 4 -6 -7 -3 -27 1 -44 8 -27 11 -29 14 -12 20 12 4 22 1 27 -7 4 -8 16
-14 25 -15z m-1338 -3 c0 -8 -48 -12 -66 -5 -13 5 -7 8 24 8 23 1 42 -1 42 -3z
m1300 -53 c0 -18 -14 -16 -57 8 -47 26 -46 25 -39 38 9 14 96 -28 96 -46z
m-440 -28 c0 -51 -3 -65 -15 -65 -17 0 -18 15 -9 84 10 67 24 56 24 -19z m290
27 c0 -5 16 -14 35 -22 19 -8 35 -16 35 -18 0 -3 -12 -20 -26 -39 -27 -36 -44
-36 -44 2 0 15 -7 26 -20 30 -22 7 -27 40 -7 48 19 8 27 8 27 -1z m-451 -96
c-3 -3 -11 5 -18 17 -13 21 -12 21 5 5 10 -10 16 -20 13 -22z m608 11 c26 -12
76 -39 109 -60 34 -20 67 -37 73 -37 7 0 24 -8 39 -17 15 -9 28 -18 30 -19 1
-1 -13 -25 -33 -55 -19 -29 -35 -58 -35 -63 0 -5 -8 -2 -18 7 -10 10 -22 17
-27 17 -16 0 -85 34 -85 42 0 4 -9 8 -19 8 -11 0 -23 9 -26 20 -4 13 -15 20
-30 20 -31 0 -96 63 -84 81 6 11 11 11 20 2 12 -12 39 -6 51 11 13 19 9 34
-12 41 -11 4 -18 11 -15 16 8 12 6 12 62 -14z m-1213 -31 c26 -63 151 -187
227 -228 39 -20 65 -39 59 -43 -14 -8 -3 -25 17 -25 9 0 13 6 9 15 -4 11 1 15
18 15 19 0 22 -4 19 -27 -4 -24 -9 -28 -34 -27 -16 0 -32 4 -36 7 -3 4 -14 7
-23 7 -10 0 -48 23 -85 50 -37 28 -72 50 -76 50 -14 0 -10 -27 6 -40 8 -7 15
-18 15 -25 0 -7 18 -37 40 -66 64 -85 47 -123 -34 -75 -100 58 -221 224 -259
353 -15 51 -15 53 4 64 16 8 25 7 38 -5 21 -20 31 -20 31 -3 0 11 25 30 47 36
2 1 9 -14 17 -33z m461 24 c3 -5 -1 -10 -9 -10 -8 0 -18 5 -21 10 -3 6 1 10 9
10 8 0 18 -4 21 -10z m-666 -31 c-19 -11 -24 -3 -8 14 8 9 16 11 18 5 2 -6 -3
-14 -10 -19z m541 14 c25 -9 56 -24 70 -34 14 -10 50 -28 80 -42 47 -20 96
-57 76 -57 -3 0 -47 20 -97 44 -50 25 -105 48 -122 52 -36 8 -77 32 -77 45 0
13 19 11 70 -8z m480 -13 c0 -5 -8 -10 -17 -10 -15 0 -16 2 -3 10 19 12 20 12
20 0z m-420 -118 c91 -44 174 -82 186 -86 14 -4 30 2 50 19 34 29 40 30 48 10
10 -26 -118 -57 -244 -59 -108 -1 -109 -1 -140 29 -29 28 -82 112 -100 160
-12 30 -17 32 200 -73z m318 72 c16 -5 16 -51 0 -56 -14 -5 -68 44 -68 61 0
10 25 8 68 -5z m49 -26 c-3 -8 -6 -5 -6 6 -1 11 2 17 5 13 3 -3 4 -12 1 -19z
m9 -103 c1 -44 -3 -79 -10 -84 -8 -7 -10 16 -8 81 4 107 16 109 18 3z m95 12
c-17 -17 -41 1 -41 31 0 42 11 46 32 11 13 -21 16 -35 9 -42z m-1046 43 c-4
-6 -1 -18 6 -26 6 -8 9 -17 6 -20 -3 -3 -10 4 -17 15 -14 26 -30 27 -30 2 0
-28 11 -52 21 -45 5 3 9 0 9 -5 0 -18 -19 -12 -30 8 -14 27 -13 68 3 74 22 9
38 7 32 -3z m1714 -67 c-15 -18 -34 -1 -25 22 5 14 9 15 21 5 12 -10 13 -16 4
-27z m-1670 -53 c-6 -4 -8 -13 -5 -19 9 -14 43 -14 48 0 4 12 68 -76 68 -93 0
-6 3 -8 6 -5 4 3 24 -8 45 -26 21 -18 58 -43 83 -56 45 -22 46 -23 46 -70 l0
-48 -32 5 c-36 5 -61 20 -53 32 6 10 -25 24 -47 21 -17 -2 -42 32 -31 43 3 3
-1 6 -10 6 -9 0 -17 5 -17 11 0 5 5 7 11 3 8 -4 7 0 -1 15 -6 12 -18 20 -27
19 -18 -3 -38 48 -22 58 5 3 9 -2 9 -10 0 -9 5 -16 10 -16 6 0 10 12 10 26 0
21 -4 24 -20 19 -14 -4 -20 -2 -20 9 0 23 -18 29 -36 12 -25 -25 -42 -18 -61
27 -11 24 -11 27 7 27 22 0 26 20 9 53 -8 17 -4 15 16 -7 19 -21 23 -31 14
-36z m1633 15 c3 -14 1 -25 -3 -25 -5 0 -9 -7 -9 -15 0 -8 -4 -15 -10 -15 -11
0 -14 63 -3 73 12 13 21 7 25 -18z m-792 1 c0 -8 -6 -16 -12 -18 -8 -3 -2 -14
17 -31 22 -20 37 -25 57 -21 23 5 26 3 21 -15 -7 -28 -47 -37 -100 -23 -24 7
-56 12 -72 12 -16 0 -32 6 -34 13 -4 8 -8 8 -14 2 -11 -14 -113 -20 -113 -7 0
6 5 14 10 17 8 5 7 11 -1 21 -9 12 -6 14 19 14 25 0 30 -3 25 -16 -4 -12 -2
-15 8 -12 8 3 13 13 13 22 -1 10 6 16 20 17 11 0 46 8 76 19 69 23 80 23 80 6z
m923 -13 c-12 -34 -35 -63 -49 -63 -19 0 -18 9 6 48 21 34 54 46 43 15z m-716
-45 c-3 -8 -6 -5 -6 6 -1 11 2 17 5 13 3 -3 4 -12 1 -19z m-487 3 c0 -5 2 -16
5 -24 4 -10 -3 -14 -25 -15 -26 -1 -29 2 -20 13 7 8 9 19 5 25 -3 6 3 10 14
10 12 0 21 -4 21 -9z m460 -53 c-1 -7 -9 -28 -19 -47 -14 -26 -19 -30 -24 -17
-4 9 -4 23 -2 31 3 8 7 22 10 30 5 18 35 20 35 3z m-986 -13 c-4 -8 -14 -15
-23 -15 -14 1 -13 3 3 15 25 19 27 19 20 0z m549 -43 c3 -15 8 -34 11 -42 6
-13 -5 -15 -71 -12 -43 2 -79 5 -80 6 -8 7 12 46 23 46 20 0 17 18 -3 24 -10
3 -1 4 19 1 21 -2 40 0 43 4 2 5 15 6 29 4 16 -3 26 -13 29 -31z m394 -86 c-9
-7 -17 -17 -17 -22 0 -14 -83 -84 -100 -83 -10 0 -8 4 6 12 12 7 43 36 69 65
26 29 50 50 54 47 3 -4 -2 -12 -12 -19z m-438 1 c69 -2 73 -7 68 -80 l-2 -39
-80 7 c-44 4 -83 9 -87 12 -5 2 -8 19 -8 38 0 18 -6 35 -12 38 -24 7 12 37 37
31 12 -3 50 -6 84 -7z m225 -19 c10 -10 9 -15 -6 -28 -23 -19 -14 -60 14 -60
10 0 17 -4 14 -8 -3 -5 -19 -7 -36 -4 -27 4 -31 8 -26 26 3 11 6 36 6 54 0 33
12 40 34 20z m-314 -173 c0 -31 -35 -35 -43 -6 -6 24 0 31 25 31 13 0 18 -7
18 -25z m870 15 c0 -5 -5 -10 -11 -10 -5 0 -7 5 -4 10 3 6 8 10 11 10 2 0 4
-4 4 -10z m-672 -12 c-3 -9 -95 -15 -136 -8 -2 0 0 5 3 10 9 15 138 13 133 -2z
m202 -3 c0 -8 -3 -14 -7 -13 -5 0 -16 -2 -25 -6 -19 -9 -25 -36 -8 -36 6 0 10
-7 10 -15 0 -11 -12 -15 -51 -15 -48 0 -50 1 -43 23 8 25 24 38 36 30 14 -8
37 17 31 33 -4 10 3 14 26 14 21 0 31 -5 31 -15z m546 -33 c5 -25 3 -32 -10
-32 -9 0 -16 7 -16 15 0 9 -7 18 -15 22 -14 5 -14 8 1 24 21 23 31 15 40 -29z
m-1006 -7 c15 -19 6 -47 -14 -39 -17 6 -29 32 -20 45 8 13 20 11 34 -6z m785
-5 c3 -5 -12 -17 -34 -26 -37 -14 -57 -44 -31 -44 6 0 10 -15 9 -32 0 -18 -3
-27 -6 -20 -7 17 -33 15 -33 -3 0 -13 -4 -14 -20 -5 -24 13 -28 53 -5 44 10
-4 15 0 15 16 0 16 -4 20 -19 15 -11 -3 -22 -1 -26 5 -4 6 -14 9 -22 6 -10 -4
-13 0 -11 11 5 29 167 58 183 33z m130 0 c-3 -5 -13 -10 -21 -10 -8 0 -12 5
-9 10 3 6 13 10 21 10 8 0 12 -4 9 -10z m-680 -29 c-28 -12 -105 -12 -105 0 0
5 28 9 63 8 42 0 56 -3 42 -8z m565 -23 c0 -6 -3 -8 -7 -5 -3 4 -12 2 -20 -5
-7 -6 -17 -8 -20 -4 -8 8 16 26 35 26 6 0 12 -5 12 -12z m-267 -58 c-6 -24
-19 -26 -27 -4 -12 32 -7 45 13 34 13 -6 17 -17 14 -30z m-247 22 c-3 -5 15
-8 39 -8 37 1 45 -2 45 -17 0 -10 -13 -26 -30 -35 -16 -9 -30 -22 -30 -28 0
-13 -147 -18 -200 -6 -32 7 -35 11 -35 42 0 30 4 36 25 38 14 2 29 8 35 13 11
11 158 12 151 1z m617 -37 c-7 -21 -13 -19 -13 6 0 11 4 18 10 14 5 -3 7 -12
3 -20z m-1023 -69 c0 -25 -5 -35 -20 -39 -17 -4 -19 -1 -14 21 10 45 13 52 24
52 5 0 10 -15 10 -34z m515 -25 c3 -11 3 -31 -1 -46 -5 -19 -12 -25 -28 -23
-16 2 -22 11 -24 37 -5 47 39 74 53 32z m281 -7 c10 -39 -8 -89 -31 -89 -17 0
-20 8 -23 58 -3 55 -2 57 22 57 19 0 27 -7 32 -26z m-416 6 c0 -5 -15 -10 -34
-10 -19 0 -38 5 -41 10 -4 6 10 10 34 10 23 0 41 -4 41 -10z m-112 -37 c20 -5
23 -11 19 -37 -2 -17 -1 -43 4 -58 l8 -28 -54 0 c-78 0 -103 12 -111 54 -3 19
-13 41 -22 48 -13 11 -6 14 44 19 32 3 66 6 74 7 8 1 26 -1 38 -5z m-210 -45
c0 -24 -2 -50 -4 -60 -6 -19 -45 -31 -78 -22 -20 5 -25 13 -28 52 -6 68 -3 72
57 72 l52 0 1 -42z m472 -84 l0 -64 -42 0 -43 0 3 68 3 67 40 -3 39 -4 0 -64z
m318 28 l22 -19 -26 -11 c-14 -7 -26 -12 -28 -12 -1 0 -1 14 2 30 2 17 5 30 7
30 1 0 12 -8 23 -18z m-206 -4 c-7 -7 -12 -31 -12 -55 0 -41 -1 -43 -31 -43
-24 0 -29 3 -22 13 6 6 13 29 17 49 6 34 16 43 51 47 5 0 4 -4 -3 -11z m78
-19 c0 -18 -4 -20 -27 -14 -36 9 -41 14 -23 25 26 17 50 11 50 -11z m-540 -33
c25 -7 45 -18 44 -25 -1 -6 -2 -15 -2 -20 -1 -5 -20 -11 -42 -13 -33 -3 -40 0
-42 17 -2 11 -18 27 -38 37 l-35 17 35 0 c19 1 55 -5 80 -13z m550 -31 c0 -14
-4 -25 -9 -25 -5 0 -11 11 -13 25 -4 17 -1 25 8 25 8 0 14 -11 14 -25z m37
-12 c-3 -10 -5 -4 -5 12 0 17 2 24 5 18 2 -7 2 -21 0 -30z m53 23 c0 -24 -17
-28 -23 -6 -3 13 0 20 9 20 8 0 14 -6 14 -14z m-880 -16 c0 -5 -4 -10 -9 -10
-6 0 -13 5 -16 10 -3 6 1 10 9 10 9 0 16 -4 16 -10z m160 0 c0 -5 -11 -10 -25
-10 -14 0 -25 5 -25 10 0 6 11 10 25 10 14 0 25 -4 25 -10z m293 3 c8 -8 -25
-33 -35 -27 -5 3 -8 12 -8 20 0 14 31 20 43 7z m-445 -69 c-3 -14 -5 -12 -10
9 -3 19 -2 25 4 19 6 -6 8 -18 6 -28z m505 16 c4 -16 14 -20 47 -20 33 0 43 4
47 20 5 21 19 25 47 14 60 -23 -66 -59 -146 -42 -49 10 -64 21 -53 38 11 18
52 11 58 -10z m-466 -22 c-3 -7 -5 -2 -5 12 0 14 2 19 5 13 2 -7 2 -19 0 -25z
m63 20 c0 -7 -5 -20 -10 -28 -8 -12 -10 -9 -10 13 0 15 5 27 10 27 6 0 10 -6
10 -12z m168 -10 c2 -10 -7 -17 -25 -21 -15 -3 -36 -12 -47 -20 -26 -19 -7
-52 39 -67 19 -6 39 -19 44 -28 8 -14 12 -15 22 -4 8 7 40 12 82 12 l68 0 -3
-27 -3 -28 -96 1 c-52 1 -134 5 -182 9 -84 7 -87 8 -81 28 4 12 13 26 20 30 8
5 14 25 14 47 0 33 3 40 20 40 10 0 27 9 37 19 29 31 86 36 91 9z m477 14 c6
-4 11 -15 11 -24 1 -10 4 -28 8 -42 5 -21 2 -25 -30 -30 -26 -5 -34 -12 -32
-24 4 -19 51 -19 97 0 14 6 34 10 43 9 19 -2 38 27 38 59 0 18 3 19 20 10 44
-23 11 -66 -71 -95 -23 -8 -54 -15 -69 -15 -16 0 -30 -4 -32 -9 -3 -11 -95
-38 -102 -30 -2 2 -7 18 -10 35 -6 29 -4 32 33 46 33 13 41 22 46 52 4 20 5
43 1 51 -4 11 1 15 17 15 12 0 27 -4 32 -8z m85 -48 c0 -51 -16 -53 -18 -2 -1
31 4 48 14 48 2 0 4 -21 4 -46z m-460 16 c0 -11 -6 -20 -14 -20 -9 0 -12 7 -9
20 3 11 9 20 14 20 5 0 9 -9 9 -20z m40 -32 c0 -6 7 -20 17 -30 14 -16 14 -18
1 -18 -9 0 -21 14 -27 31 -13 39 -14 42 -1 34 6 -3 10 -11 10 -17z m200 -2 c0
-8 -4 -18 -10 -21 -5 -3 -10 3 -10 14 0 12 5 21 10 21 6 0 10 -6 10 -14z
m-620 -26 c0 -16 5 -30 12 -30 6 0 9 -2 6 -5 -3 -3 -17 0 -32 6 -37 17 -33 54
7 58 4 1 7 -12 7 -29z m520 21 c0 -6 -4 -13 -10 -16 -5 -3 -10 1 -10 9 0 9 5
16 10 16 6 0 10 -4 10 -9z m40 -6 c0 -8 -4 -15 -10 -15 -5 0 -10 7 -10 15 0 8
5 15 10 15 6 0 10 -7 10 -15z m-480 -15 c0 -11 -7 -20 -15 -20 -15 0 -21 21
-8 33 12 13 23 7 23 -13z m520 -52 c0 -14 -9 -27 -23 -34 -22 -10 -23 -8 -25
23 -2 29 0 33 23 33 19 0 25 -5 25 -22z m-73 -20 c-3 -7 -5 -2 -5 12 0 14 2
19 5 13 2 -7 2 -19 0 -25z m8 -48 c3 -5 1 -10 -4 -10 -6 0 -11 5 -11 10 0 6 2
10 4 10 3 0 8 -4 11 -10z m98 -7 c-13 -2 -33 -2 -45 0 -13 2 -3 4 22 4 25 0
35 -2 23 -4z m-328 -13 c-4 -7 -65 -1 -65 6 0 3 15 4 34 2 19 -1 33 -5 31 -8z
m52 4 c-3 -3 -12 -4 -19 -1 -8 3 -5 6 6 6 11 1 17 -2 13 -5z m-7 -84 c0 -16
-4 -30 -10 -30 -5 0 -10 14 -10 30 0 17 5 30 10 30 6 0 10 -13 10 -30z"/>
<path d="M1006 1748 c-8 -32 11 -47 23 -17 5 13 7 27 4 32 -8 14 -21 7 -27
-15z"/>
<path d="M730 1586 c0 -18 26 -40 34 -27 9 14 -4 41 -20 41 -8 0 -14 -6 -14
-14z"/>
<path d="M770 1522 c0 -14 39 -46 47 -38 4 4 2 15 -3 24 -12 19 -44 29 -44 14z"/>
<path d="M840 1440 c0 -5 7 -10 15 -10 8 0 15 5 15 10 0 6 -7 10 -15 10 -8 0
-15 -4 -15 -10z"/>
<path d="M940 1415 c7 -8 16 -12 21 -9 13 8 1 24 -18 24 -13 0 -13 -3 -3 -15z"/>
<path d="M640 1330 c0 -5 5 -10 10 -10 6 0 10 5 10 10 0 6 -4 10 -10 10 -5 0
-10 -4 -10 -10z"/>
<path d="M1160 1230 c0 -5 5 -10 10 -10 6 0 10 5 10 10 0 6 -4 10 -10 10 -5 0
-10 -4 -10 -10z"/>
<path d="M1182 1108 c3 -24 17 -32 36 -20 18 12 4 42 -20 42 -14 0 -19 -6 -16
-22z"/>
</g>
</svg>
